<svg id="visual" viewBox="0 0 675 900" width="675" height="900" xmlns="http://www.w3.org/2000/svg" xmlns:xlink="http://www.w3.org/1999/xlink" version="1.1"><rect x="0" y="0" width="675" height="900" fill="#0c436d"></rect><path d="M0 588L16 601.3C32 614.7 64 641.3 96.2 654.3C128.3 667.3 160.7 666.7 192.8 655C225 643.3 257 620.7 289.2 612.5C321.3 604.3 353.7 610.7 385.8 602.5C418 594.3 450 571.7 482.2 569.8C514.3 568 546.7 587 578.8 607.2C611 627.3 643 648.7 659 659.3L675 670L675 901L659 901C643 901 611 901 578.8 901C546.7 901 514.3 901 482.2 901C450 901 418 901 385.8 901C353.7 901 321.3 901 289.2 901C257 901 225 901 192.8 901C160.7 901 128.3 901 96.2 901C64 901 32 901 16 901L0 901Z" fill="#0c7e82"></path><path d="M0 709L16 704.3C32 699.7 64 690.3 96.2 673.3C128.3 656.3 160.7 631.7 192.8 630.8C225 630 257 653 289.2 670.7C321.3 688.3 353.7 700.7 385.8 701.3C418 702 450 691 482.2 679.7C514.3 668.3 546.7 656.7 578.8 662.2C611 667.7 643 690.3 659 701.7L675 713L675 901L659 901C643 901 611 901 578.8 901C546.7 901 514.3 901 482.2 901C450 901 418 901 385.8 901C353.7 901 321.3 901 289.2 901C257 901 225 901 192.8 901C160.7 901 128.3 901 96.2 901C64 901 32 901 16 901L0 901Z" fill="#31878b"></path><path d="M0 669L16 670C32 671 64 673 96.2 686.3C128.3 699.7 160.7 724.3 192.8 733C225 741.7 257 734.3 289.2 736.3C321.3 738.3 353.7 749.7 385.8 755.5C418 761.3 450 761.7 482.2 746.8C514.3 732 546.7 702 578.8 692C611 682 643 692 659 697L675 702L675 901L659 901C643 901 611 901 578.8 901C546.7 901 514.3 901 482.2 901C450 901 418 901 385.8 901C353.7 901 321.3 901 289.2 901C257 901 225 901 192.8 901C160.7 901 128.3 901 96.2 901C64 901 32 901 16 901L0 901Z" fill="#489194"></path><path d="M0 811L16 799C32 787 64 763 96.2 756.8C128.3 750.7 160.7 762.3 192.8 763.8C225 765.3 257 756.7 289.2 751.7C321.3 746.7 353.7 745.3 385.8 754.3C418 763.3 450 782.7 482.2 792.3C514.3 802 546.7 802 578.8 793.2C611 784.3 643 766.7 659 757.8L675 749L675 901L659 901C643 901 611 901 578.8 901C546.7 901 514.3 901 482.2 901C450 901 418 901 385.8 901C353.7 901 321.3 901 289.2 901C257 901 225 901 192.8 901C160.7 901 128.3 901 96.2 901C64 901 32 901 16 901L0 901Z" fill="#5c9a9d"></path><path d="M0 800L16 807C32 814 64 828 96.2 831.5C128.3 835 160.7 828 192.8 823.8C225 819.7 257 818.3 289.2 821.2C321.3 824 353.7 831 385.8 833.2C418 835.3 450 832.7 482.2 825.7C514.3 818.7 546.7 807.3 578.8 810.7C611 814 643 832 659 841L675 850L675 901L659 901C643 901 611 901 578.8 901C546.7 901 514.3 901 482.2 901C450 901 418 901 385.8 901C353.7 901 321.3 901 289.2 901C257 901 225 901 192.8 901C160.7 901 128.3 901 96.2 901C64 901 32 901 16 901L0 901Z" fill="#6ea4a6"></path></svg>